<svg width="232" height="172" viewBox="0 0 232 172" fill="none" xmlns="http://www.w3.org/2000/svg">
<path d="M166.067 7.59745C154.325 -2.08408 134.203 -4.29366 116 11.634C97.8237 -4.27805 77.6753 -2.08409 65.9326 7.58964C52.2535 18.8561 52.0126 37.7039 65.2009 49.2437L116 93.7007L166.799 49.2515C179.987 37.7117 179.746 18.864 166.067 7.59745ZM160.49 43.7236L116 82.6606L71.5095 43.7314C61.8547 35.2757 62.0421 21.5264 72.0538 13.2815C76.319 9.75238 82.0298 7.81607 88.1332 7.81607C100.911 7.81607 106.658 14.4995 116 22.6741C125.093 14.7181 130.946 7.81607 143.867 7.81607C149.97 7.81607 155.681 9.75238 159.955 13.2736C169.94 21.503 170.172 35.2523 160.49 43.7236Z" fill="#989191" fill-opacity="0.15"/>
<path d="M216.751 7.81592C208.889 7.81592 202.367 12.969 201.581 19.8085L195.933 68.6144C193.211 69.1219 190.713 70.2775 188.777 71.9717L143.706 108.683C137.505 113.626 133.909 120.676 133.846 128.047V171.777H187.385V151.196C187.385 148.019 188.911 144.927 191.677 142.631L225.54 112.728C229.707 109.043 232 104.163 232 98.9863V21.1593C232 13.8044 225.156 7.81592 216.751 7.81592ZM223.077 98.9863C223.077 102.094 221.703 105.022 219.195 107.239L185.439 137.049C181.005 140.718 178.462 145.872 178.462 151.196V163.97H142.769V128.093C142.814 122.917 145.339 117.959 149.756 114.446L194.969 77.6011C196.183 76.5392 197.843 76.0161 199.6 76.1723C200.573 76.2503 201.974 76.5548 203.17 77.6011C204.267 78.5614 204.874 79.8419 204.874 81.1926C204.874 82.5433 204.258 83.8238 203.321 84.6514L168.512 112.275L174.509 118.053L209.478 90.2964C212.262 87.8604 213.797 84.628 213.797 81.1848C213.797 77.7416 212.271 74.5092 209.487 72.081C208.131 70.8787 206.551 69.9573 204.82 69.3249L210.451 20.6049C210.781 17.7629 213.494 15.6236 216.751 15.6236C220.239 15.6236 223.077 18.1065 223.077 21.1593V98.9863Z" fill="#989191" fill-opacity="0.15"/>
<path d="M88.2939 108.683L43.2234 71.9717C41.2871 70.2775 38.7886 69.1141 36.0671 68.6144L30.4188 19.8085C29.6335 12.969 23.1108 7.81592 15.2495 7.81592C6.844 7.81592 0 13.8044 0 21.1593V98.9863C0 104.163 2.29323 109.043 6.46031 112.72L40.3234 142.624C43.0895 144.919 44.6154 148.019 44.6154 151.196V171.777H98.1539V128.047C98.1003 120.676 94.4954 113.634 88.2939 108.683ZM89.2308 163.97H53.5385V151.196C53.5385 145.879 50.9954 140.718 46.5606 137.049L12.8046 107.239C10.2972 105.022 8.92308 102.094 8.92308 98.9863V21.1593C8.92308 18.1065 11.7606 15.6236 15.2495 15.6236C18.5065 15.6236 21.2191 17.7629 21.5492 20.5893L27.1797 69.3093C25.4486 69.9495 23.8692 70.8708 22.5129 72.0654C19.7378 74.4936 18.2031 77.726 18.2031 81.1692C18.2031 84.6124 19.7378 87.8448 22.5218 90.2808L57.4914 118.037L63.4877 112.259L28.6788 84.6358C27.7329 83.8082 27.1262 82.5355 27.1262 81.177C27.1262 79.8185 27.7329 78.5458 28.8305 77.5855C30.0172 76.5392 31.4271 76.2347 32.3997 76.1567C34.1665 76.0083 35.8172 76.5236 37.0308 77.5855L82.244 114.43C86.6609 117.943 89.1862 122.901 89.2308 128.078V163.97Z" fill="#989191" fill-opacity="0.15"/>
</svg>
