<svg width="102" height="77" viewBox="0 0 102 77" fill="none" xmlns="http://www.w3.org/2000/svg">
<path d="M72.2813 3.31656C67.1551 -0.909777 58.3714 -1.87434 50.4251 5.07867C42.4905 -1.86752 33.695 -0.909778 28.5689 3.31315C22.5975 8.23138 22.4923 16.4591 28.2495 21.4966L50.4251 40.9037L72.6007 21.5C78.3579 16.4625 78.2527 8.23479 72.2813 3.31656ZM69.8468 19.0869L50.4251 36.0843L31.0034 19.0903C26.7888 15.3991 26.8706 9.39703 31.241 5.79783C33.1029 4.25726 35.5959 3.41199 38.2602 3.41199C43.8382 3.41199 46.3468 6.32953 50.4251 9.89806C54.3943 6.42496 56.9496 3.41199 62.5899 3.41199C65.2543 3.41199 67.7472 4.25726 69.613 5.79442C73.9718 9.38681 74.0731 15.3889 69.8468 19.0869Z" fill="url(#paint0_linear)"/>
<path d="M94.6194 5.4248C91.1877 5.4248 88.3403 7.67431 87.9975 10.66L85.5318 31.9655C84.3438 32.1871 83.2531 32.6915 82.4078 33.4311L62.733 49.4571C60.0258 51.6146 58.456 54.6923 58.4287 57.9098V76.9999H81.8002V68.0155C81.8002 66.6283 82.4663 65.2786 83.6738 64.2766L98.4562 51.2226C100.275 49.6139 101.276 47.4837 101.276 45.2239V11.2497C101.276 8.039 98.2887 5.4248 94.6194 5.4248ZM97.3811 45.2239C97.3811 46.5805 96.7813 47.8586 95.6867 48.8266L80.951 61.8396C79.0151 63.4415 77.9049 65.691 77.9049 68.0155V73.5915H62.324V57.9302C62.3434 55.6705 63.4458 53.5062 65.3739 51.9725L85.1111 35.8885C85.6409 35.425 86.3654 35.1966 87.1327 35.2648C87.5573 35.2989 88.1689 35.4318 88.6908 35.8885C89.17 36.3077 89.4348 36.8667 89.4348 37.4563C89.4348 38.046 89.1661 38.605 88.7571 38.9662L73.5617 51.0249L76.1793 53.5471L91.4448 41.4305C92.6601 40.3671 93.3301 38.956 93.3301 37.4529C93.3301 35.9499 92.664 34.5388 91.4487 33.4788C90.8566 32.9539 90.1671 32.5518 89.4115 32.2757L91.8694 11.0077C92.0135 9.76703 93.1976 8.83314 94.6194 8.83314C96.1424 8.83314 97.3811 9.91699 97.3811 11.2497V45.2239Z" fill="url(#paint1_linear)"/>
<path d="M38.5434 49.4571L18.8686 33.4311C18.0233 32.6915 16.9326 32.1837 15.7446 31.9655L13.2789 10.66C12.9361 7.67431 10.0887 5.4248 6.65697 5.4248C2.98765 5.4248 0 8.039 0 11.2497V45.2239C0 47.4837 1.00108 49.6139 2.82015 51.2192L17.6026 64.2731C18.8101 65.2752 19.4762 66.6283 19.4762 68.0155V76.9999H42.8477V57.9098C42.8243 54.6923 41.2506 51.618 38.5434 49.4571ZM38.9524 73.5915H23.3715V68.0155C23.3715 65.6944 22.2613 63.4415 20.3254 61.8396L5.58967 48.8266C4.49511 47.8586 3.89524 46.5805 3.89524 45.2239V11.2497C3.89524 9.91699 5.13393 8.83314 6.65697 8.83314C8.07873 8.83314 9.26289 9.76702 9.40701 11.0008L11.8649 32.2689C11.1092 32.5483 10.4198 32.9505 9.82769 33.472C8.61627 34.532 7.94629 35.943 7.94629 37.4461C7.94629 38.9492 8.61627 40.3603 9.83159 41.4237L25.097 53.5403L27.7146 51.0181L12.5193 38.9594C12.1064 38.5981 11.8415 38.0426 11.8415 37.4495C11.8415 36.8565 12.1064 36.3009 12.5855 35.8817C13.1036 35.425 13.719 35.2921 14.1436 35.258C14.9149 35.1932 15.6355 35.4182 16.1653 35.8817L35.9024 51.9656C37.8306 53.4994 38.9329 55.6637 38.9524 57.9234V73.5915Z" fill="url(#paint2_linear)"/>
<defs>
<linearGradient id="paint0_linear" x1="34.0827" y1="5.44039" x2="39.7293" y2="31.6075" gradientUnits="userSpaceOnUse">
<stop stop-color="#FD97A9"/>
<stop offset="1" stop-color="#FFB285"/>
</linearGradient>
<linearGradient id="paint1_linear" x1="66.5983" y1="14.9446" x2="84.9346" y2="54.3281" gradientUnits="userSpaceOnUse">
<stop stop-color="#FD97A9"/>
<stop offset="1" stop-color="#FFB285"/>
</linearGradient>
<linearGradient id="paint2_linear" x1="8.16962" y1="14.9446" x2="26.5059" y2="54.3281" gradientUnits="userSpaceOnUse">
<stop stop-color="#FD97A9"/>
<stop offset="1" stop-color="#FFB285"/>
</linearGradient>
</defs>
</svg>
