<svg width="102" height="77" viewBox="0 0 102 77" fill="none" xmlns="http://www.w3.org/2000/svg">
<path fill-rule="evenodd" clip-rule="evenodd" d="M72.2813 3.31656C67.1551 -0.909776 58.3714 -1.87433 50.4251 5.07867C42.4905 -1.86752 33.695 -0.909776 28.5689 3.31315C22.5975 8.23138 22.4923 16.4591 28.2495 21.4966L50.4251 40.9037L72.6007 21.5C78.3579 16.4625 78.2527 8.23479 72.2813 3.31656ZM69.8468 19.0869L50.4251 36.0843L31.0034 19.0903C26.7888 15.3991 26.8706 9.39703 31.241 5.79783C33.1029 4.25726 35.5959 3.41199 38.2602 3.41199C43.1814 3.41199 45.7134 5.68285 49.042 8.66815C49.4863 9.06663 49.9448 9.47783 50.4251 9.89806C50.9137 9.47056 51.3808 9.05003 51.8349 8.64123C55.0701 5.72889 57.6439 3.41199 62.5899 3.41199C65.2543 3.41199 67.7472 4.25726 69.613 5.79442C73.9718 9.38681 74.0731 15.3889 69.8468 19.0869ZM94.6194 5.42481C91.1877 5.42481 88.3403 7.67431 87.9975 10.66L85.5318 31.9655C84.3438 32.1871 83.2531 32.6915 82.4078 33.4311L62.733 49.4571C60.0258 51.6146 58.456 54.6923 58.4287 57.9098V76.9999H81.8002V68.0155C81.8002 66.6283 82.4663 65.2786 83.6738 64.2766L98.4562 51.2226C100.275 49.6139 101.276 47.4837 101.276 45.2239V11.2497C101.276 8.039 98.2887 5.42481 94.6194 5.42481ZM97.3811 45.2239C97.3811 46.5805 96.7813 47.8586 95.6867 48.8266L80.951 61.8396C79.0151 63.4415 77.9049 65.691 77.9049 68.0155V73.5915H62.324V57.9302C62.3434 55.6705 63.4458 53.5062 65.3739 51.9725L85.1111 35.8885C85.6409 35.425 86.3654 35.1966 87.1328 35.2648C87.5573 35.2989 88.1689 35.4318 88.6908 35.8885C89.17 36.3077 89.4348 36.8667 89.4348 37.4564C89.4348 38.046 89.1661 38.605 88.7571 38.9662L73.5617 51.0249L76.1793 53.5471L91.4448 41.4305C92.6601 40.3671 93.3301 38.956 93.3301 37.4529C93.3301 35.9499 92.664 34.5388 91.4487 33.4788C90.8566 32.9539 90.1671 32.5518 89.4115 32.2757L91.8694 11.0077C92.0135 9.76703 93.1976 8.83314 94.6194 8.83314C96.1424 8.83314 97.3811 9.91699 97.3811 11.2497V45.2239ZM18.8686 33.4311L38.5434 49.4571C41.2506 51.618 42.8243 54.6923 42.8477 57.9098V76.9999H19.4762V68.0155C19.4762 66.6283 18.8101 65.2752 17.6026 64.2731L2.82015 51.2192C1.00108 49.6139 0 47.4837 0 45.2239V11.2497C0 8.039 2.98765 5.42481 6.65697 5.42481C10.0887 5.42481 12.9361 7.67431 13.2789 10.66L15.7446 31.9655C16.9326 32.1837 18.0233 32.6915 18.8686 33.4311ZM23.3715 73.5915H38.9524V57.9234C38.9329 55.6637 37.8306 53.4994 35.9024 51.9656L16.1653 35.8817C15.6355 35.4182 14.9149 35.1932 14.1436 35.258C13.719 35.2921 13.1036 35.425 12.5855 35.8817C12.1064 36.3009 11.8415 36.8565 11.8415 37.4495C11.8415 38.0426 12.1064 38.5981 12.5193 38.9594L27.7146 51.0181L25.097 53.5403L9.83159 41.4237C8.61627 40.3603 7.94629 38.9492 7.94629 37.4461C7.94629 35.9431 8.61627 34.532 9.82769 33.472C10.4198 32.9505 11.1092 32.5483 11.8649 32.2689L9.40701 11.0008C9.26289 9.76703 8.07873 8.83314 6.65697 8.83314C5.13393 8.83314 3.89524 9.91699 3.89524 11.2497V45.2239C3.89524 46.5805 4.49511 47.8586 5.58967 48.8266L20.3254 61.8396C22.2613 63.4415 23.3715 65.6944 23.3715 68.0155V73.5915Z" fill="url(#paint0_linear)"/>
<defs>
<linearGradient id="paint0_linear" x1="50.6382" y1="0" x2="50.6382" y2="76.9999" gradientUnits="userSpaceOnUse">
<stop offset="0.0104167" stop-color="#F1B354"/>
<stop offset="0.651042" stop-color="#E9E2AB"/>
<stop offset="1" stop-color="#BFD8B2"/>
</linearGradient>
</defs>
</svg>
