<svg width="54" height="43" viewBox="0 0 54 43" fill="none" xmlns="http://www.w3.org/2000/svg">
<path d="M49.7162 4.20811C46.9208 1.49452 43.0852 0 38.9151 0C35.798 0 32.9433 0.882036 30.4302 2.6214C29.1621 3.49938 28.0131 4.57353 27 5.82726C25.9873 4.5739 24.8379 3.49938 23.5694 2.6214C21.0567 0.882036 18.202 0 15.0849 0C10.9148 0 7.07877 1.49452 4.28343 4.20811C1.52147 6.88999 0 10.5538 0 14.5252C0 18.6127 1.70192 22.3544 5.35583 26.3007C8.62454 29.8307 13.3224 33.4141 18.7627 37.5636C20.6204 38.9807 22.726 40.5869 24.9125 42.2979C25.4901 42.7507 26.2312 43 27 43C27.7684 43 28.5099 42.7507 29.0867 42.2986C31.2731 40.5873 33.38 38.9803 35.2385 37.5625C40.678 33.4138 45.3759 29.8307 48.6446 26.3003C52.2985 22.3544 54 18.6127 54 14.5248C54 10.5538 52.4785 6.88999 49.7162 4.20811Z" fill="white"/>
<line x1="14" y1="16" x2="40" y2="16" stroke="black" stroke-width="2"/>
<line x1="14" y1="23" x2="40" y2="23" stroke="black" stroke-width="2"/>
</svg>
